{"title":"MYLENE FARMER---Je te dis tout-2013( Videoclip_1080p)","uid":8081860,"size":251803846,"categoryP":"video","categoryS":"music_videos","magnet":"?xt=urn:btih:32cb25fca3a1e0068925ad664388c79fad23a4b4&amp;dn=MYLENE+FARMER---Je+te+dis+tout-2013%28+Videoclip_1080p%29&amp;tr=udp%3A%2F%2Ftracker.openbittorrent.com%3A80&amp;tr=udp%3A%2F%2Fopen.demonii.com%3A1337&amp;tr=udp%3A%2F%2Ftracker.coppersurfer.tk%3A6969&amp;tr=udp%3A%2F%2Fexodus.desync.com%3A6969","seeders":2,"leechers":0,"uploader":null,"files":-1,"time":1359516893,"description":"Format                                   : AVI\nFormat/Info                              : Audio Video Interleave\nFile size                                : 240 MiB\nDuration                                 : 4mn 18s\nOverall bit rate                         : 7 786 Kbps\nWriting library                          : TMPGEnc 4.0 XPress Version. 4.7.7.307\n\nVideo\nID                                       : 0\nFormat                                   : MPEG-4 Visual\nFormat profile                           : Advanced Simple@L5\nFormat settings, BVOP                    : 2\nFormat settings, QPel                    : No\nFormat settings, GMC                     : No warppoints\nFormat settings, Matrix                  : Default (H.263)\nMuxing mode                              : Packed bitstream\nCodec ID                                 : XVID\nCodec ID/Hint                            : XviD\nDuration                                 : 4mn 18s\nBit rate                                 : 6 362 Kbps\nWidth                                    : 1 920 pixels\nHeight                                   : 1 080 pixels\nDisplay aspect ratio                     : 16:9\nFrame rate                               : 25.000 fps\nColor space                              : YUV\nChroma subsampling                       : 4:2:0\nBit depth                                : 8 bits\nScan type                                : Progressive\nCompression mode                         : Lossy\nBits/(Pixel*Frame)                       : 0.123\nStream size                              : 196 MiB (82%)\nWriting library                          : XviD 64\n\nAudio\nID                                       : 1\nFormat                                   : PCM\nFormat settings, Endianness              : Little\nFormat settings, Sign                    : Signed\nCodec ID                                 : 1\nDuration                                 : 4mn 18s\nBit rate mode                            : Constant\nBit rate                                 : 1 411.2 Kbps\nChannel(s)                               : 2 channels\nSampling rate                            : 44.1 KHz\nBit depth                                : 16 bits\nStream size                              : 43.5 MiB (18%)\nInterleave, duration                     : 40 ms (1.00 video frame)\nInterleave, preload duration             : 479 ms\n\n","torrent":{"xt":"urn:btih:32cb25fca3a1e0068925ad664388c79fad23a4b4","amp;dn":"MYLENE+FARMER---Je+te+dis+tout-2013%28+Videoclip_1080p%29","amp;tr":["udp%3A%2F%2Ftracker.openbittorrent.com%3A80","udp%3A%2F%2Fopen.demonii.com%3A1337","udp%3A%2F%2Ftracker.coppersurfer.tk%3A6969","udp%3A%2F%2Fexodus.desync.com%3A6969"],"infoHash":"32cb25fca3a1e0068925ad664388c79fad23a4b4","infoHashBuffer":{"type":"Buffer","data":[50,203,37,252,163,161,224,6,137,37,173,102,67,136,199,159,173,35,164,180]},"announce":[],"urlList":[]}}